<?xml version="1.0" encoding="utf-8"?>
<!-- Generator: Adobe Illustrator 26.0.1, SVG Export Plug-In . SVG Version: 6.00 Build 0)  -->
<svg version="1.1" id="图层_1" xmlns="http://www.w3.org/2000/svg" xmlns:xlink="http://www.w3.org/1999/xlink" x="0px" y="0px"
	 viewBox="0 0 836 115" style="enable-background:new 0 0 836 115;" xml:space="preserve">
<style type="text/css">
	.st0{fill:#1773C6;}
</style>
<path class="st0" d="M63.15,110.18c-16.91,0-33.83-0.11-50.74,0.07c-4.8,0.06-8.6-2.57-8.57-8.55c0.17-29.1,0.07-58.2,0.08-87.3
	c0-6.08,2.38-8.4,8.5-8.4h101.49c1.08-0.05,2.17,0.02,3.24,0.19c3.5,0.78,5.38,3.48,5.39,7.65V94.1c0,2.84,0,5.67,0,8.51
	c0,4.83-2.78,7.56-7.63,7.56C97.64,110.19,80.38,110.19,63.15,110.18z M115.21,25.32H11.32v77.47h103.89V25.32z M110.3,20
	c2.52,0.14,4.7-1.75,4.92-4.26c0.12-2.53-1.82-4.68-4.35-4.82c-2.42-0.13-4.52,1.66-4.76,4.08C105.9,17.53,107.77,19.76,110.3,20z
	 M102.21,15.54c-0.03-2.53-2.12-4.56-4.65-4.53c-2.35,0.03-4.29,1.83-4.51,4.17c-0.1,2.53,1.84,4.67,4.37,4.82
	c2.52-0.05,4.59-1.99,4.79-4.5V15.54z M89.01,15.54c0.17-2.38-1.62-4.45-4-4.62c-0.16-0.01-0.32-0.01-0.47-0.01
	c-2.5,0.12-4.44,2.24-4.32,4.75c0.11,2.34,1.98,4.21,4.32,4.32C87,19.97,89,17.97,89,15.51L89.01,15.54z"/>
<path class="st0" d="M478,62.36h-59.61c0.31-2.44,0.58-4.61,0.91-7.18h22.43c0.21-1.17,0.35-2,0.54-3c-3.46,0.1-6.66-0.91-9.74,0.75
	c-0.38,0.18-0.79,0.27-1.21,0.26c-4.07,0-8.14,0-12.2,0l-0.43-0.54L428,40.76l-6.59-0.4c0.33-2.47,0.62-4.69,1-7.2h8.38l1.79-12.4
	l-7-0.32c0.36-2.37,0.69-4.52,1-6.81l6.92-0.46l-1.7-3.06h14.94v3.09h16.55l-1.6-3c5-0.55,9.82-0.12,14.74-0.26
	c0.1,1.19,0.17,2.08,0.26,3.29l6.71,0.42c-0.35,2.34-0.66,4.43-1,6.79l-7,0.35c-0.56,4-1.1,8-1.71,12.32h8.4
	c-0.38,2.69-0.69,4.92-1,7.31l-6.84,0.33c2.16,4.17,4.15,8,6.44,12.46c-2.64,0-4.69,0.12-6.72,0c-4.67-0.32-9.33-0.78-14-1.13
	c-1.03,0-2.06,0.06-3.09,0.19c-0.09,0.9-0.15,1.6-0.26,2.8H479C478.62,57.8,478.29,60,478,62.36z M459.67,40.68H442.6l-2.89,3.71
	H443l1.1-2.51h13.58c0.26,1,0.44,1.68,0.68,2.59l3.16-0.15L459.67,40.68z M462.3,21.17c-2.74-0.91-14.9-0.76-16.45,0.1
	C447.65,22.19,460,22.21,462.3,21.17L462.3,21.17z M444.71,26.91c2.59,0.95,14.85,0.83,16.48-0.06
	C459.45,25.9,447.08,25.85,444.71,26.91L444.71,26.91z M444.6,32.29c3.46,1.23,14.37,1,15.77,0H444.6z"/>
<path class="st0" d="M812.15,27h8c-0.22,1.82-0.39,3.15-0.59,4.78l-8.14,0.37v0.92c2.1,0.66,4.36,0.25,6.54,0.32s4.46,0,7.18,0
	c-0.26,1.89-0.46,3.38-0.71,5.2h-6.81l-0.29,0.62l7.26,8.26l-6.8,0.33c-0.45,2.5-0.87,4.84-1.35,7.53c-4,0-7.92,1-11.76-1.31
	c0.25-2.26,0.48-4.38,0.73-6.78H782.5l-1.21,6.82c-3.75,2.52-7.86,1.14-12.19,1.47c0.28-2.74,0.51-5.08,0.77-7.71l-6.73-0.32
	l-0.23-0.49l9.1-7.83l-0.12-0.57H765c0.26-1.9,0.46-3.33,0.74-5.31h14c0-0.38,0-0.75,0-1.12L772,31.79l0.4-4.46l8.38-0.48
	c0-0.31,0-0.62,0-0.94h-10.2l0.06-0.49L767,23.35c0.47-3.33,0.98-6.9,1.52-10.71h22.28l-0.66-2.5h15.34
	c0.16,0.69,0.31,1.38,0.56,2.51h22.16c-0.56,4-1.05,7.51-1.51,10.77l-4,1.85c-3.46,0.55-7.08,0-10.61,0.55
	C812.1,26.22,812.13,26.63,812.15,27z M816,17.87h-36.88c-0.16,0.77-0.3,1.51-0.45,2.24l0.48,0.58l3.85-1.34l-0.08-0.24h10.98
	l1.45,1.36h3.9l1.58-1.36h11.11l-0.12,0.45l4,1.19C815.88,19.48,815.92,18.78,816,17.87z M781.49,40.56c0.1,0.23,0.2,0.45,0.31,0.68
	h25.85l-2.32-2.54c-6.81,0-13.54-0.09-20.26,0.09C783.86,38.82,782.68,39.94,781.49,40.56z M794,26.46c2,1,3.29,0.89,4.7-0.23
	C796.76,25.27,795.4,25.34,794,26.46z M797.7,33.06c-1.88-1.4-3-1.36-4.57,0H797.7z"/>
<path class="st0" d="M152,44.08c-0.82,4.16-1.64,8.32-2.47,12.48c-0.28,1.37-0.58,2.74-0.92,4.29h-6.36
	c1.59-8.82,3.13-17.42,4.69-26.13l6.18-0.32l0.72-2.15l-7.44-0.4c0.31-2.34,0.59-4.42,0.89-6.68l6.68-0.35
	c0.3-1.78,0.59-3.46,0.91-5.36h-6.18c0.28-2.25,0.55-4.33,0.85-6.75L173,10.58c-0.28,2.43-0.53,4.56-0.78,6.77l-5.5,1l-0.84,6.42
	l6.18,0.41c-0.32,2.33-0.59,4.41-0.91,6.78h-6.75l-0.94,2.62h6.76c-0.77,8-1.51,15.68-2.25,23.32c3.75-2.11,7.87-0.15,12.08-1.38
	c0.24-1.38,0.51-3,0.88-5h-9.78c0.35-2.52,0.63-4.55,1-6.88h9.55l0.86-4.51h-11.15c0.29-2.4,0.53-4.32,0.78-6.44h35.61
	c-0.27,2.15-0.52,4.08-0.8,6.31h-11.11l-0.8,4.55H205l-1,6.94h-9.77c-0.29,1.89-0.53,3.39-0.84,5.39h11.67
	c-0.33,2.47-0.6,4.44-0.89,6.54H167.9v-2.61h-6.75L163,41.67l-0.39-0.05l-3.18,21.83h-9.83l2.4-19.39l0.43-1.53l-0.33-0.06
	L152,44.08z M163,39.08l0.41-0.07L163.22,38L163,39.08z M152.62,39.74l0.13,0.11v-0.21L152.62,39.74z"/>
<path class="st0" d="M609.33,47.82c0,0.68-0.06,1.28-0.1,2.26h8c-0.28,2.33-0.5,4.25-0.78,6.56h-8.42l-1.27,6.84h-14
	c0.2-2.18,0.39-4.2,0.61-6.51h-18.58l-3.32,6.52h-14.23c1-2.23,1.89-4.16,2.94-6.49L554,56.41c0.26-2,0.5-3.89,0.78-6.09h8.57
	l1.45-2.54l-5.38-0.45c1.1-7.78,2.16-15.31,3.26-23h54.06c-1.1,7.79-2.17,15.37-3.25,23L609.33,47.82z M574.24,36.73h27.54
	l0.14-2.06h-5.79c-6.56,0-13.12,0-19.69,0C575.34,34.68,574,34.47,574.24,36.73z M573.09,41.53l0.33,0.63
	c0.21,0.13,0.44,0.22,0.68,0.26c8.54,0,17.09,0.06,25.64,0c0.56,0,1.11-0.65,2-1.17c-0.74-0.39-1-0.6-1.16-0.6
	c-8.63,0-17.26-0.07-25.89,0C574.12,40.63,573.61,41.22,573.09,41.53L573.09,41.53z M574.76,30.14c0.12,0.3,0.25,0.6,0.38,0.9h21.14
	c1.66,0,3.32,0,5,0c1,0,1.84-0.24,1.43-1.54c-0.23-0.11-0.37-0.25-0.52-0.25c-8.56-0.05-17.11-0.1-25.67-0.07
	C575.92,29.16,575.34,29.8,574.76,30.14L574.76,30.14z M578.33,49.94h15.88c0.13-0.71,0.26-1.37,0.42-2.22h-15.3
	C579,48.4,578.74,49,578.33,49.94L578.33,49.94z"/>
<path class="st0" d="M683.57,44.27c0.68,6.38,1.33,12.62,2,19.13h-11.4L673,61.88l-29.3,1.35c-0.08-3.22-0.11-6,1.56-8.46
	c3.08-4.54,6.22-9.05,9.75-14.18h-8.67c0.36-2.88,0.66-5.22,1-7.91h13.43c0.3-2.27,0.55-4.19,0.88-6.69h-11.84
	c0.35-2.76,0.63-4.94,1-7.55h11.7c0.93-3,1.57-5.53-0.51-8.28h16.1c-0.27,2.68-0.52,5.19-0.82,8.2h13.22
	c-0.37,2.73-0.68,4.92-1,7.53h-13.3c-0.4,2.29-0.73,4.21-1.16,6.65h15.05l-1.18,7.88h-19l-9.72,14h12.16
	c-0.42-3.54-0.79-6.72-1.19-10.15L683.57,44.27z"/>
<path class="st0" d="M511.45,62.43c1-7.28,2-14.32,3-21.57h9.41L522,55.26h2.64c0.89-6.29,1.76-12.43,2.69-19.06H516
	c0.44-3.34,0.81-6.19,1.21-9s0.89-5.6,1.18-8.41c0.09-1.69,0.09-3.38,0-5.07H528c-0.68,5.29-1.33,10.34-2,15.58l2.21,0.12
	c0.58-4,1.2-7.8,1.7-11.66c0.32-2.43,1.37-4.92-1.11-7.48h12.8c-0.85,6.37-1.67,12.57-2.53,19l2.33,0.21
	c0.65-4.51,1.28-8.86,1.92-13.27l-1.02-2.52h9.77c-1,7.41-2.07,14.68-3.15,22.37h-10.8c-0.94,6.58-1.82,12.78-2.71,19.08
	c0.53,0.14,1.07,0.25,1.62,0.31c0.52-0.03,1.04-0.1,1.56-0.2c0.72-4.72,1.44-9.44,2.2-14.39h8.79c-1.05,7.35-2.05,14.39-3.07,21.56
	H511.45z"/>
<path class="st0" d="M751.57,32.76c-0.72,5.16-1.4,10.07-2.11,15.16l-5.61,0.51c-0.34,2.42-0.68,4.75-1.06,7.39
	c4.28-0.07,8.3,1.27,11.76-1.91l0.44,0.28l-1.25,8.74h-26.29c0.65-4.89,1.27-9.54,1.93-14.48h-8.72L708.4,62.93h-15.63l12.07-14.5
	L699.78,48c0.69-5.1,1.36-10.07,2.05-15.19L751.57,32.76z M736.57,41.89c0.15-1.13,0.26-2,0.39-3h-22.23l-0.42,3H736.57z"/>
<path class="st0" d="M270.33,52.31h-10.56l3-7.91h-4.35c-0.46,3-0.91,5.8-1.34,8.66c-0.23,1.56-0.4,3.14-0.63,4.71
	c-0.59,4-2.75,5.88-6.72,5.91s-7.76,0-12.05,0c1.93-3.39,5.48-5.1,5.74-9c0.22-3.37,0.83-6.72,1.31-10.43h-14.44l0.84-6.7h11.73
	l-2.27-5.75h12.74l3.1-2.13l-0.1-0.62h-21.76c0.34-2.35,0.61-4.22,0.9-6.28H275c-0.27,2.13-0.51,4-0.77,6L260.67,37l0.15,0.56h14
	C275.47,43.36,272.66,47.72,270.33,52.31z"/>
<path class="st0" d="M260.78,10.18c0.17,1,0.31,1.92,0.54,3.31h17.39c-0.36,2.64-0.65,4.73-1,7.12h-45.46
	c-3,14.39-5.89,28.54-8.84,42.85H210.8c3.22-15.76,6.38-31.28,9.57-46.87c-0.52-0.81-1.06-1.62-2-3h27.32l0.22-0.68l-1.53-2.69
	L260.78,10.18z"/>
<path class="st0" d="M507.63,19.35l-3.58,9.12h10.37C512.81,40,511.28,50.93,509.73,62H488c0.81-6.16,1.6-12.1,2.4-18.16l-3.4-0.7
	c3-7.8,5.9-15.49,8.9-23.36l-4.35-0.61c0.38-2.55,0.74-5,1.11-7.5h24.17c-0.35,2.58-0.67,4.93-1.05,7.68L507.63,19.35z M498.54,55.4
	l2.78-0.22c0.87-6.21,1.72-12.25,2.61-18.58l-2.76,0.2C500.3,43,499.45,48.94,498.54,55.4z"/>
<path class="st0" d="M385.56,35H372c0.4-2.67,0.73-4.92,1.12-7.51h13.51c0.76-5.11,1.47-9.86,2.18-14.59
	c-0.66-0.87-1.25-1.65-2.07-2.75h16.56l-2.3,17.4h12.65c-0.39,2.75-0.7,5-1.06,7.54h-12.73c-1.36,9.56-2.67,18.84-4,28.31h-14
	C383,54.11,384.26,44.86,385.56,35z"/>
<path class="st0" d="M319.17,59.94c-1.56,0.89-3,1.86-4.58,2.57c-1.25,0.62-2.61,1-4,1.13c-3.66,0.15-7.33,0.06-11,0
	c-0.7,0-1.39-0.12-2.09-0.19l-0.17-0.51l14.26-9.55l-9.2-8c0.12-1.12,0.24-2.23,0.4-3.66c4,0,7.83-0.17,11.6,0.1
	c1.13,0.09,2.2,1.37,3.24,2.19c1.22,1,2.38,2,3.66,3.13c2.67-2,5.92-2.86,7.52-6.22c-8.55-0.54-17-0.32-25.86-0.48l1.08-7.14h37.8
	c-0.61,4.66-1.2,9.06-1.79,13.51l-11.12,7l10.92,9.48c-0.73,0.17-1.47,0.28-2.22,0.35c-4,0-8,0.13-12-0.07
	c-1.36-0.24-2.64-0.76-3.78-1.54C320.9,61.41,320.01,60.71,319.17,59.94z"/>
<path class="st0" d="M308,14.22l-1.76-2.53h36.28c-0.53,4.08-1,8-1.53,11.83l0.62,0.29l3-2.25c-0.47,3.56-0.88,6.58-1.31,9.78
	h-15.19c0.53-4.25,1-8.26,1.57-12.54h-9.87l-2.88,12.56h-12.42C305.7,25.51,306.85,19.92,308,14.22z"/>
<path class="st0" d="M351,63.79c1.55-11.09,3-21.59,4.51-32.3l-4.82-0.58c0.28-2.23,0.55-4.32,0.85-6.64h18
	c-1.3,9.42-2.58,18.66-3.9,28.23c1.33-0.08,2.29-0.13,3.25-0.2s1.78-0.16,3.17-0.29c-0.35,2.65-0.66,5-1,7.61L351,63.79z"/>
<path class="st0" d="M174.14,30.36c0.88-6.36,1.72-12.43,2.59-18.7h33.16c-0.87,6.27-1.72,12.38-2.6,18.7H174.14z M187.14,18.21
	c-0.23,1.95-0.43,3.68-0.65,5.58h10.24l0.72-5.58H187.14z"/>
<path class="st0" d="M283.26,24.21h17c-1.25,9.23-2.46,18.2-3.72,27.52l5.32-1.07c-0.33,2.51-0.63,4.77-1,7.34l-18.53,4.4
	c1.47-10.68,2.85-20.73,4.24-30.87l-4.17-0.74C282.68,28.6,283,26.52,283.26,24.21z"/>
<path class="st0" d="M733.79,24.38l2.37-3.25h13.68c-0.17,0.64-0.27,1.1-0.42,1.55s-0.38,0.88-0.81,1.85h9.72
	c-0.33,2.53-0.59,4.54-0.87,6.74h-61.65l0.75-6.59H707c-0.12-1.38-0.2-2.34-0.31-3.5h13.77c0.48,1.07,0.92,2,1.45,3.2H733.79z"/>
<path class="st0" d="M736.79,10v3.49h21.76c-0.34,2.43-0.6,4.35-0.9,6.45h-58.87c0.26-2.11,0.51-4,0.8-6.38h22.79
	c-0.46-1.33-0.75-2.16-1.24-3.54C726.45,9.84,731.57,9.88,736.79,10z"/>
<path class="st0" d="M792.54,59.1c-4.95,1.66-9.11,3.78-13.48,4.33c-5.64,0.72-11.44,0.18-17.18,0.18l-0.19-0.59l12-4.73l12.1-4.76
	c0.35-1.77,0.67-3.39,1-5.23h14.05c-0.18,1.91-0.33,3.62-0.51,5.62l20.4,9.14v0.37c-0.6,0.06-1.19,0.17-1.78,0.19
	c-0.83,0-1.66,0-2.5,0C808.06,63.86,799.6,64.33,792.54,59.1z"/>
<path class="st0" d="M590.51,18.55l3.92-6c-0.2-0.87-0.37-1.56-0.58-2.47h14.4c-0.12,0.8-0.21,1.43-0.38,2.54h14.74
	c-0.31,2.2-0.54,3.88-0.8,5.73l-6.55,0.36c0.43,1.32,0.77,2.38,1.21,3.71h-10.92l-2-2.81l-2.34,2.89h-12.36
	c0.63-1.48,1.16-2.74,1.7-4L590.51,18.55z"/>
<path class="st0" d="M713.92,98.94c-0.14-0.38-0.23-0.77-0.29-1.17c0.04-0.48,0.11-0.97,0.21-1.44h100v2.61H713.92z"/>
<path class="st0" d="M156.66,98.9v-2.62h100c0.05,0.85,0.1,1.61,0.17,2.62H156.66z"/>
<path class="st0" d="M590.55,18.52h-5.22c0.55,1.47,0.94,2.53,1.45,3.88h-11.07l-2-3l-2.21,3h-12.64l5.83-10.32
	c-0.23-0.6-0.46-1.2-0.77-2h14.61c-0.17,0.79-0.31,1.48-0.53,2.51h13.31l-0.8,5.92L590.55,18.52z"/>
<path class="st0" d="M630.75,42.66h11.92c-2.48,7.07-4.86,13.84-7.31,20.79h-12C625.87,56.35,628.3,49.54,630.75,42.66z"/>
<path class="st0" d="M417.38,108.59l-2.78-0.12V93l-0.63-0.11c-1.78,5.15-3.56,10.3-5.4,15.59h-3.23l-5.43-16.31h-0.38v16.29h-2.92
	V86.92h4.2c2,5.74,3.94,11.44,5.91,17.14h0.51c2-5.7,4-11.39,6-17.21h4.16L417.38,108.59z"/>
<path class="st0" d="M357.93,99.52v8.93h-3.16c-0.42-7.1-0.15-14.18-0.18-21.63c5.08-0.19,9.81-0.78,14.39,0.65
	c3.22,1,4.25,5.76,2.12,8.69c-0.44,0.6-1,1.11-1.53,1.71c3.51,2.8,1.53,7.11,3.21,10.61h-3.51c-0.26-2.11-0.54-4.07-0.73-6
	c0.04-1.56-1.2-2.86-2.76-2.9c-0.03,0-0.06,0-0.09,0C363.24,99.43,360.78,99.52,357.93,99.52z M358.14,96.45
	c2.91,0,5.48,0.16,8-0.06c1.82-0.15,2.58-1.65,2.75-3.37c0.25-1.47-0.67-2.89-2.12-3.26c-2.82-0.91-5.67-0.57-8.65-0.36
	L358.14,96.45z"/>
<path class="st0" d="M525.3,108.3c-0.35,0.14-0.71,0.24-1.08,0.31c-0.65,0-1.31,0-2.16,0l-10.4-16.41h-0.53v16.2l-2.94,0.2V86.92
	l3.4-0.24L522,103.31h0.43V87.09l2.86-0.41L525.3,108.3z"/>
<path class="st0" d="M447.39,108.47h-3.21l-10.4-16.38l-0.63,0.14v16.19l-2.8,0.18V86.9l3.44-0.23L444,103l0.55-0.12V87l2.85-0.31
	L447.39,108.47z"/>
<path class="st0" d="M680.93,99.6h-5.85c-0.13-0.84-0.23-1.49-0.38-2.4h9.48v11c-1.94,1.16-2-0.8-2.62-1.53
	c-1.56,0.79-3.17,1.45-4.83,2c-6,1.51-10.8-1.53-12.14-7.61c-1.31-5.91,0.74-13.91,9-14.78c2.67-0.37,5.38,0.36,7.51,2
	c1.64,1.05,2.56,2.93,2.35,4.87l-2.05,0.27c-0.28-0.28-0.52-0.59-0.74-0.92c-1.39-2.89-3.91-3.79-6.83-3.54
	c-2.81,0.05-5.17,2.12-5.59,4.89c-0.49,2.75-0.49,5.56,0,8.31c0.71,3.39,4.2,4.94,8,4.24C679.47,105.86,681.14,103.6,680.93,99.6z"
	/>
<path class="st0" d="M471.26,108.28c-1.84,0.84-2.05-0.61-2.45-1.48c-1.99,0.85-4.04,1.56-6.13,2.12
	c-4.86,1.06-9.65-2.03-10.71-6.88c-0.01-0.04-0.02-0.08-0.02-0.12c-0.48-2.11-0.58-4.28-0.32-6.43c1-7.34,7.51-11,14.45-8.37
	c2.68,0.91,4.55,3.34,4.74,6.16h-2.13c-1.46-1.38-2.45-2.88-3.85-3.55c-4.27-2.08-8.74,0-9.66,4.65c-0.47,2.6-0.43,5.26,0.13,7.84
	c0.65,3.09,3.81,4.7,7.26,4.36c3.06-0.12,5.53-2.52,5.75-5.57c-0.01-0.4-0.06-0.8-0.14-1.19l-3-0.17l-3-0.2v-2.27h9.07
	L471.26,108.28z"/>
<path class="st0" d="M349.8,97.18v11c-1.94,1-2-0.67-2.54-1.41c-1.98,0.84-4.02,1.54-6.1,2.1c-4.9,0.99-9.69-2.12-10.77-7
	c-0.87-3.07-0.71-6.35,0.45-9.32c2.51-6.16,10.67-8.42,15.86-4.22c1.3,1,2,2.87,3,4.33l-0.48,0.58h-2c-1.46-1.4-2.46-2.89-3.86-3.56
	c-4.27-2.08-8.72,0-9.65,4.66c-0.49,2.6-0.45,5.26,0.14,7.84c0.75,3.35,4.35,5,8,4.26c3.41-0.72,5.08-2.93,4.83-6.65l-5.93-0.39
	v-2.22C340.75,97.18,349.8,97.18,349.8,97.18z"/>
<path class="st0" d="M643.12,86.86c4.43-0.27,8.33-0.67,12.13,0.48c4.47,1.35,6.15,5.62,6.16,10.6c-0.04,1.75-0.38,3.47-1,5.11
	c-0.9,2.96-3.47,5.1-6.54,5.45c-2.33,0.2-4.67,0.25-7,0.17c-1.06,0-2.13,0-3.59,0C642.9,101.34,643.14,94.28,643.12,86.86z
	 M646.74,89.31V106c3.74-0.07,7.72,1.2,10-2.55c2.3-3.45,2.32-7.93,0.06-11.4C654.5,88.49,650.61,89.23,646.74,89.31z"/>
<path class="st0" d="M285.59,108.63V86.81c4.74-0.21,9.32-0.78,13.77,0.59c3.41,1,4.59,5.63,2.46,8.79
	c-0.42,0.57-0.87,1.11-1.36,1.62c3.37,2.89,1.19,7.13,2.88,10.69H300c-0.18-1.41-0.45-2.84-0.51-4.27c-0.18-3.65-0.94-4.6-4.54-4.91
	c-2-0.17-3.95,0-6.32,0v9.09L285.59,108.63z M288.72,96.37c2.9,0,5.62,0.2,8.3-0.06c1.8-0.18,2.46-1.74,2.46-3.52s-0.7-3-2.48-3.17
	c-2.68-0.27-5.38-0.32-8.28-0.47L288.72,96.37z"/>
<path class="st0" d="M558.12,91.88v16.5h-2.52v-21.5l3.33-0.16c3.55,5.67,7,11.21,10.46,16.74l0.49-0.12V87l2.82-0.24v21.56
	c-0.35,0.14-0.71,0.25-1.08,0.31c-0.65,0-1.31,0-2.26,0c-3.56-5.6-7.13-11.23-10.71-16.88L558.12,91.88z"/>
<path class="st0" d="M305.86,97.92c0.22-4.41,1.28-8.19,5.11-10.28c3.61-2.13,8.13-2,11.62,0.33c3.46,2.19,4.45,5.72,4.55,9.48
	c0.12,4-0.88,7.68-4.58,9.91c-3.67,2.37-8.4,2.35-12.05-0.07C306.88,105.1,306.23,101.41,305.86,97.92z M324.21,97.58
	c-0.21-1.47-0.55-2.91-1-4.32c-1.08-2.75-3.82-4.48-6.77-4.26c-2.76-0.16-5.31,1.48-6.3,4.07c-1.2,2.7-1.34,5.75-0.39,8.54
	c1.29,3.77,5.4,5.77,9.16,4.48c1.15-0.4,2.18-1.07,3-1.98C323.61,102.28,324,100,324.21,97.58z"/>
<path class="st0" d="M504.6,97.76c-0.15,10.61-9.42,13.32-16.16,9.92c-3.73-1.88-4.8-5.54-5.12-9.41
	c-0.67-8.1,5.66-13.54,13.53-11.7C501.54,87.67,504.58,92.06,504.6,97.76z M501.86,97.6c-0.5-1.91-1.17-3.76-2-5.55
	c-2.25-4-9.06-4.22-11.51-0.42c-2.26,3.25-2.54,7.48-0.72,11c1.57,3.22,5.33,4.72,8.68,3.46
	C499.55,104.92,501.48,101.82,501.86,97.6L501.86,97.6z"/>
<path class="st0" d="M577.75,108.48V86.91h15.63v2.57h-12.52v6.46h11.43c0.06,1,0.1,1.69,0.17,2.79h-11.57v7.14h12.43
	c0.07,1.07,0.11,1.73,0.17,2.61H577.75z"/>
<path class="st0" d="M689.25,86.92h15.5c0.1,0.37,0.17,0.75,0.21,1.13c-0.07,0.47-0.18,0.94-0.32,1.4H692.4v6.61h11.45v2.62h-11.42
	v7.15h12.34c0.11,1.06,0.18,1.73,0.28,2.63h-15.8L689.25,86.92z"/>
<path class="st0" d="M393.94,108.53h-3.1l-2.42-5.8h-8.51l-2.38,5.77l-3.1,0.14c2.82-7.48,5.48-14.56,8.19-21.76h3.54
	C388.71,94,391.25,101.06,393.94,108.53z M387.3,99.39c-1-3.07-1.95-5.8-2.86-8.53L384,91c-1,2.72-1.91,5.43-3,8.44L387.3,99.39z"/>
<path class="st0" d="M268.2,99.88v8.49l-3,0.26V87.19c0.51-0.24,1.05-0.4,1.6-0.49c3-0.12,6.01-0.07,9,0.16
	c3.9,0.44,5.81,2.77,5.7,6.3c-0.1,3.72-2.4,6.1-6.29,6.41c-1.49,0.12-3,0-4.49,0.08C270,99.68,269.28,99.78,268.2,99.88z
	 M268.32,96.54c2.59,0,4.83,0.11,7,0c1.59-0.1,2.87-1.35,3-2.94c0.28-1.51-0.15-3-1.65-3.55c-2.67-0.99-5.59-1.14-8.35-0.43V96.54z"
	/>
<path class="st0" d="M635.68,86.91h2.65c0.15,0.66,0.25,1.33,0.31,2c0,4,0,8,0,12c0,3.12-1.07,5.73-4.15,7.09
	c-3.39,1.51-6.89,1.83-10-0.4c-1.48-1.05-2.49-2.64-2.82-4.43c-0.35-5.29-0.14-10.62-0.14-16.17h2.68c0.1,1.09,0.24,2.06,0.25,3
	c0,3.59,0,7.18,0.08,10.76c0.14,3.87,2.2,5.85,5.74,5.75c3.13-0.08,5.12-2.23,5.21-5.79s0-7,0-10.51
	C635.54,89.22,635.62,88.24,635.68,86.91z"/>
<path class="st0" d="M630.94,27.13h11.93c0.28,4.12,0.54,8.05,0.82,12.27h-12C631.48,35.34,631.22,31.41,630.94,27.13z"/>
<path class="st0" d="M634,23.9c-0.29-4.06-0.56-8-0.86-12.22H645c0.27,4.05,0.53,8,0.81,12.22H634z"/>
<path class="st0" d="M287.07,11.57h11.58c0.68,3.17,1.35,6.27,2.09,9.69h-11.47C288.57,18.14,287.86,15,287.07,11.57z"/>
<path class="st0" d="M367.26,11.73l2.66,9.58h-11.44c-0.85-3.06-1.71-6.12-2.67-9.58H367.26z"/>
<path class="st0" d="M614.07,86.91h2.3c0.13,0.69,0.22,1.38,0.27,2.08c0,4.67,0.05,9.34,0,14c0,4-2.7,6.39-6.6,6
	c-4.27-0.36-6.26-2.81-5.67-7.28l2.35-0.12c0.16,0.87,0.32,1.5,0.4,2.15c0.24,2,1.48,2.69,3.27,2.75c2,0.06,2.93-1.14,3.08-2.91
	c0.16-2,0.1-4,0.12-6c0-3.25,0.07-6.5,0.12-9.75C613.79,87.51,613.91,87.2,614.07,86.91z"/>
<path class="st0" d="M543.84,105.89v2.57h-13.65V86.93l2.8-0.22v19.18H543.84z"/>
<path class="st0" d="M425.17,108.49h-2.87V86.92h2.87V108.49z"/>
<path class="st0" d="M547.68,86.92h2.63v21.55h-2.63V86.92z"/>
<path class="st0" d="M27.66,65.06v-6.41l25.71-11.12v7.39l-16.89,6.57v0.48l16.93,6.82v7.38L27.66,65.06z"/>
<path class="st0" d="M73.08,76.21v-7.34L90,62.12l0.06-0.51L73.07,55v-7.4l25.78,11.07V65L73.08,76.21z"/>
<path class="st0" d="M69.9,43.41c0,1.07-0.09,2.13-0.27,3.18c-2.37,10-4.8,19.93-7.22,29.89c-0.19,0.8-0.46,1.6-0.72,2.39
	c-0.53,1.66-1.58,2.58-3.39,2.07s-2-1.8-1.63-3.38c1.33-5.75,2.71-11.51,4.09-17.26c1.26-5.19,2.46-10.38,3.86-15.53
	C65.43,41.79,67.05,41.38,69.9,43.41z"/>
</svg>
